<?xml version="1.0" encoding="UTF-8"?>
<svg version="1.1" xmlns="http://www.w3.org/2000/svg" width="500" height="500">
<path d="M0 0 C1.1564653 -0.00852997 2.3129306 -0.01705994 3.50444031 -0.02584839 C4.76429749 -0.02494202 6.02415466 -0.02403564 7.32218933 -0.02310181 C8.6695391 -0.02908972 10.01688544 -0.03589588 11.36422729 -0.04345703 C15.01726284 -0.06109876 18.67020464 -0.06581167 22.32327867 -0.0670886 C24.60804289 -0.06851194 26.89278341 -0.07278502 29.17754173 -0.07808304 C37.15546044 -0.09657815 45.13331239 -0.10475441 53.11125183 -0.10317993 C60.53613315 -0.10197907 67.96072353 -0.12307173 75.38553125 -0.15466726 C81.76958223 -0.18086131 88.15353838 -0.1915459 94.53764266 -0.19026911 C98.3463643 -0.18976034 102.15482736 -0.19539601 105.96349525 -0.21662521 C109.54807635 -0.23606036 113.13215363 -0.23609666 116.71675301 -0.22159195 C118.6498828 -0.2185205 120.58301293 -0.23514388 122.5160675 -0.25247192 C130.63186134 -0.19402763 136.17963038 0.73247791 142.45573425 6.23226929 C142.99456238 6.88324585 143.5333905 7.53422241 144.08854675 8.20492554 C144.64284363 8.85332397 145.1971405 9.50172241 145.76823425 10.16976929 C149.89332571 16.15672634 149.92962818 22.21677766 149.21354675 29.26742554 C147.44012242 35.91215468 142.76688205 40.44110513 137.21354675 44.26742554 C133.4909011 46.0271704 130.54439621 46.52249643 126.44055176 46.5415802 C125.28697678 46.55155533 124.13340179 46.56153046 122.94487 46.57180786 C121.05979736 46.57280487 121.05979736 46.57280487 119.13664246 46.57382202 C117.79253684 46.58144823 116.44843558 46.58987652 115.1043396 46.5990448 C111.4594439 46.62095597 107.81463209 46.62978454 104.16967797 46.63487124 C101.88891821 46.63851994 99.60818025 46.64476277 97.32742882 46.65187263 C89.36017776 46.67635896 81.3929917 46.68941649 73.42570496 46.69296265 C66.01670926 46.69659351 58.60812893 46.7264584 51.19926006 46.76836723 C44.82536835 46.80314851 38.45161373 46.81851246 32.07762784 46.81920868 C28.27659746 46.81999908 24.4759901 46.82862668 20.67505836 46.85720634 C17.09531873 46.88352105 13.51634867 46.88551891 9.93655586 46.8695507 C8.01094316 46.86689227 6.08534455 46.88883025 4.15986633 46.91174316 C-3.46496198 46.84798728 -9.49282861 45.79088885 -15.78645325 41.26742554 C-22.13882124 34.46585005 -23.16048416 29.01142684 -23.0559845 19.78695679 C-22.61671545 14.05099436 -21.12722842 10.44693645 -16.9153595 6.52523804 C-11.56332672 2.29622159 -6.9174234 0.02312354 0 0 Z M-14.66145325 12.32992554 C-18.35490282 17.43557642 -18.29219874 22.16985247 -17.78645325 28.26742554 C-16.00629586 33.71261284 -12.39819225 37.04968946 -7.78645325 40.26742554 C-4.7055339 41.29439865 -2.58308522 41.40055136 0.64559937 41.41459656 C1.77407288 41.42175186 2.90254639 41.42890717 4.06521606 41.4362793 C5.30421158 41.4389682 6.54320709 41.4416571 7.81974792 41.44442749 C9.12406769 41.45099869 10.42838745 41.45756989 11.77223206 41.46434021 C16.10031405 41.48536676 20.42839634 41.49574269 24.7565155 41.50570679 C26.24809093 41.50975516 27.73966617 41.51387211 29.23124123 41.51805687 C36.24075549 41.53710709 43.25025924 41.5513373 50.25979441 41.55966884 C58.34209047 41.56943477 66.42411218 41.59573794 74.5063116 41.63616973 C80.758677 41.66637038 87.01096395 41.68114153 93.26340085 41.68444985 C96.99504194 41.68679626 100.72638989 41.69570255 104.4579525 41.72091103 C108.62560034 41.74861033 112.79263878 41.74434859 116.96037292 41.73739624 C118.18924728 41.7502063 119.41812164 41.76301636 120.68423462 41.7762146 C127.67497829 41.73372938 132.2850755 41.06522514 138.21354675 37.26742554 C143.13383804 32.08817156 144.68545258 27.84152948 144.529953 20.80258179 C143.8928999 15.69829215 141.49954237 12.48747266 137.77604675 8.95492554 C133.3732057 6.05549362 129.79669636 5.01796437 124.53425598 5 C123.40158798 4.99147003 122.26891998 4.98294006 121.10192871 4.97415161 C119.2518647 4.97551117 119.2518647 4.97551117 117.36442566 4.97689819 C116.05820755 4.97018097 114.75198944 4.96346375 113.40618896 4.95654297 C109.82966401 4.93890446 106.2532348 4.93418852 102.67667055 4.9329114 C100.44015671 4.93148807 98.20366709 4.92721504 95.96715927 4.92191696 C88.15897328 4.9034241 80.35085549 4.89524545 72.54264832 4.89682007 C65.27338679 4.89802141 58.0044222 4.87691875 50.73523581 4.84533274 C44.48623088 4.81915079 38.23732283 4.80845356 31.98826349 4.80973089 C28.25949619 4.81023994 24.53099291 4.80458832 20.80228043 4.78337479 C16.64180055 4.76035008 12.48198302 4.76952495 8.32145691 4.78158569 C6.47746559 4.76472717 6.47746559 4.76472717 4.59622192 4.74752808 C-3.32469401 4.80590279 -9.5122411 5.67146155 -14.66145325 12.32992554 Z " fill="#FEB856" transform="translate(308.7864532470703,232.73257446289063)"/>
<path d="M0 0 C3.1875 2.25 3.1875 2.25 5 4 C4.82374165 6.37948772 4.30280227 7.70225849 2.59765625 9.37890625 C1.09350908 10.62115486 -0.45129851 11.81376056 -2 13 C-2.495 12.731875 -2.99 12.46375 -3.5 12.1875 C-10.77703733 8.73090727 -16.57469298 6.55033046 -24.625 9.1875 C-29.16599403 11.62618198 -32.34345262 14.03035787 -34 19 C-34.6609303 26.41108734 -34.69324244 32.03831366 -30 38 C-24.79991598 41.90006301 -19.42814836 42.70625839 -13 42 C-11.35 41.34 -9.7 40.68 -8 40 C-7.67 34.72 -7.34 29.44 -7 24 C-3.04 24 0.92 24 5 24 C5.16181546 27.75172134 5.28082599 31.49649288 5.375 35.25 C5.42527344 36.31347656 5.47554687 37.37695312 5.52734375 38.47265625 C5.58305106 41.42514389 5.55839604 44.09919685 5 47 C2.26171875 49.625 2.26171875 49.625 -1 51 C-1.76441406 51.34546875 -2.52882812 51.6909375 -3.31640625 52.046875 C-13.15259251 55.12602896 -22.88974736 55.30347923 -32.4921875 51.328125 C-40.74063089 46.9597905 -45.22132281 40.99723592 -48.3125 32.3125 C-50.03476318 24.23351999 -49.01051335 16.02027314 -44.56640625 9.03125 C-33.62222782 -5.16070208 -15.77632472 -7.84839011 0 0 Z " fill="#080808" transform="translate(120,224)"/>
<path d="M0 0 C6.38918673 6.6863582 6.6875 11.05190012 6.6875 20.8125 C-9.1525 21.3075 -9.1525 21.3075 -25.3125 21.8125 C-23.23568022 26.12559291 -23.23568022 26.12559291 -19.25 27.6875 C-14.84798773 29.0152037 -11.71182771 28.66475696 -7.35546875 27.35546875 C-5.3125 26.8125 -5.3125 26.8125 -1.3125 26.8125 C0.70373639 28.59527744 2.06094618 30.64376157 3.6875 32.8125 C-2.23505405 38.30169644 -7.79295736 40.28423666 -15.9140625 40.0625 C-23.24324632 39.29854599 -29.25458983 37.23168947 -34.3125 31.8125 C-39.1162825 25.49252364 -39.23445015 18.48581424 -38.3125 10.8125 C-36.77114284 4.88790843 -33.37518057 1.39688231 -28.390625 -2 C-18.90520039 -7.42024263 -8.76980426 -5.79138017 0 0 Z M-24.3125 7.8125 C-24.9725 9.7925 -25.6325 11.7725 -26.3125 13.8125 C-19.3825 13.8125 -12.4525 13.8125 -5.3125 13.8125 C-6.66402097 8.04295122 -6.66402097 8.04295122 -9.5 5.9375 C-14.94808444 3.75826623 -19.78313625 3.93018821 -24.3125 7.8125 Z " fill="#080808" transform="translate(171.3125,238.1875)"/>
<path d="M0 0 C2.68754086 1.50502288 4.12555992 3.41043824 5.7578125 5.984375 C6.1172998 6.54479492 6.47678711 7.10521484 6.84716797 7.68261719 C8.14530045 10.96379493 7.98106316 13.85479196 7.953125 17.375 C7.9502951 18.07961365 7.94746521 18.78422729 7.94454956 19.51019287 C7.93339051 21.7517626 7.90829443 23.99292686 7.8828125 26.234375 C7.87277714 27.75780671 7.86365226 29.28124471 7.85546875 30.8046875 C7.83346541 34.53138086 7.79896522 38.25783833 7.7578125 41.984375 C3.7978125 41.984375 -0.1621875 41.984375 -4.2421875 41.984375 C-4.29117188 40.23769531 -4.34015625 38.49101562 -4.390625 36.69140625 C-4.46566803 34.39321352 -4.5412152 32.0950372 -4.6171875 29.796875 C-4.648125 28.64638672 -4.6790625 27.49589844 -4.7109375 26.31054688 C-4.74960938 25.19873047 -4.78828125 24.08691406 -4.828125 22.94140625 C-4.87525635 21.40963745 -4.87525635 21.40963745 -4.92333984 19.84692383 C-5.33501462 16.15099213 -5.97105064 13.02011615 -8.9296875 10.609375 C-12.30956975 9.69589331 -14.86255328 10.18555237 -18.2421875 10.984375 C-20.30156966 12.56323466 -21.08789961 13.67579923 -22.2421875 15.984375 C-22.39597602 17.94211569 -22.49190213 19.90454852 -22.55859375 21.8671875 C-22.60048828 23.03378906 -22.64238281 24.20039063 -22.68554688 25.40234375 C-22.74452148 27.23732422 -22.74452148 27.23732422 -22.8046875 29.109375 C-22.84787109 30.34042969 -22.89105469 31.57148438 -22.93554688 32.83984375 C-23.04187373 35.88788012 -23.14255722 38.93611239 -23.2421875 41.984375 C-27.5321875 41.984375 -31.8221875 41.984375 -36.2421875 41.984375 C-36.2421875 27.794375 -36.2421875 13.604375 -36.2421875 -1.015625 C-32.2821875 -1.015625 -28.3221875 -1.015625 -24.2421875 -1.015625 C-24.2421875 0.304375 -24.2421875 1.624375 -24.2421875 2.984375 C-23.613125 2.6234375 -22.9840625 2.2625 -22.3359375 1.890625 C-14.37074691 -2.42785183 -8.59082784 -3.57108922 0 0 Z " fill="#060606" transform="translate(222.2421875,235.015625)"/>
<path d="M0 0 C4.29 0 8.58 0 13 0 C15.9573613 5.69928569 18.4293338 11.43048272 20.6875 17.4375 C21.29319705 19.04126389 21.90114748 20.64417919 22.51171875 22.24609375 C22.77428467 22.94404053 23.03685059 23.6419873 23.30737305 24.36108398 C23.88206537 26.00742201 23.88206537 26.00742201 25 27 C25.32798584 26.21761963 25.65597168 25.43523926 25.99389648 24.62915039 C27.20890103 21.73411828 28.42608696 18.84001626 29.64477539 15.9465332 C30.1723493 14.69267184 30.69904531 13.43844073 31.22485352 12.18383789 C31.97963701 10.38331289 32.73781418 8.5842117 33.49609375 6.78515625 C33.95169678 5.70113525 34.4072998 4.61711426 34.87670898 3.50024414 C36 1 36 1 37 0 C39.01964199 -0.07244053 41.04167124 -0.08377188 43.0625 -0.0625 C44.71958984 -0.04896484 44.71958984 -0.04896484 46.41015625 -0.03515625 C47.26480469 -0.02355469 48.11945313 -0.01195312 49 0 C46.5812528 7.78507163 43.49416991 15.25555841 40.3293457 22.75878906 C39.43148758 24.88926653 38.54063957 27.0225834 37.65039062 29.15625 C37.07853845 30.51840281 36.50628726 31.8803882 35.93359375 33.2421875 C35.66896835 33.87655731 35.40434296 34.51092712 35.13169861 35.16452026 C33.93380434 37.99317411 32.71212435 40.43181348 31 43 C26.66426653 43.41796916 22.3498754 43.12793751 18 43 C13.90461996 34.31683892 10.06975488 25.5616624 6.42041016 16.68408203 C5.60794072 14.70851946 4.79055509 12.73503892 3.97265625 10.76171875 C0 1.13988642 0 1.13988642 0 0 Z " fill="#080808" transform="translate(235,234)"/>
</svg>
