<?xml version="1.0" encoding="UTF-8"?>
<svg version="1.1" xmlns="http://www.w3.org/2000/svg" width="500" height="500">
<path d="M0 0 C165 0 330 0 500 0 C500 165 500 330 500 500 C335 500 170 500 0 500 C0 335 0 170 0 0 Z " fill="#FEFEFE" transform="translate(0,0)"/>
<path d="M0 0 C0.72237994 -0.00508782 1.44475987 -0.01017564 2.18903011 -0.01541764 C4.61624745 -0.03114768 7.043435 -0.03966872 9.47068787 -0.04811096 C11.2085794 -0.05764917 12.94646902 -0.06754032 14.68435669 -0.07775879 C20.39883671 -0.10915417 26.11333132 -0.12941489 31.8278656 -0.14796448 C33.28679926 -0.15291046 33.28679926 -0.15291046 34.77520633 -0.15795636 C43.95085288 -0.18874276 53.12650272 -0.21544691 62.30218601 -0.23237514 C74.03173176 -0.25426945 85.76081903 -0.29621144 97.49018151 -0.36581272 C105.74085819 -0.41310515 113.99141143 -0.43731589 122.24221939 -0.44457203 C127.16786118 -0.44952124 132.09298632 -0.46453211 137.0184803 -0.50431633 C141.65698529 -0.54128771 146.29468084 -0.5495581 150.93330574 -0.5363102 C152.63038884 -0.53636397 154.32750875 -0.54659081 156.02445602 -0.56806183 C165.5180824 -0.68170305 173.43554234 -0.44749753 180.94895935 6.16062927 C186.8749445 12.68882441 187.17925804 18.44715516 187.26145935 26.84812927 C187.29046326 27.81685974 187.31946716 28.78559021 187.34934998 29.78367615 C187.41609152 37.37681088 186.02899567 42.64583634 180.9841156 48.40281677 C180.00765076 49.21105896 180.00765076 49.21105896 179.01145935 50.03562927 C178.36306091 50.58992615 177.71466248 51.14422302 177.0466156 51.71531677 C172.35103303 54.95063437 168.33046866 55.41442474 162.68191528 55.43478394 C161.96049892 55.44002061 161.23908255 55.44525729 160.49580508 55.45065266 C158.08389315 55.46562738 155.67219384 55.46635725 153.26023865 55.46702576 C151.52865746 55.47464895 149.79707966 55.48307672 148.06550598 55.49224854 C143.36499505 55.51418465 138.66454917 55.52299125 133.96399283 55.52807498 C131.02594276 55.53171959 128.08790969 55.5379602 125.1498661 55.54507637 C114.896122 55.56956777 104.64242847 55.5826221 94.38865662 55.58616638 C84.83702555 55.58980142 75.28571586 55.61969536 65.73418301 55.66157097 C57.52849373 55.69628251 49.3229109 55.71171497 41.1171487 55.71241242 C36.21851528 55.71320493 31.32020928 55.72193202 26.42165184 55.75041008 C21.81271835 55.77660552 17.20438341 55.77878776 12.59540939 55.76275444 C10.90717958 55.76094112 9.21891523 55.76762014 7.53075981 55.78357315 C-2.65646401 55.87394646 -9.15299472 55.43243481 -17.07447815 48.35203552 C-17.52049377 47.81449646 -17.9665094 47.2769574 -18.42604065 46.72312927 C-18.88752502 46.18816833 -19.3490094 45.6532074 -19.82447815 45.10203552 C-24.85864241 37.13394751 -23.96565009 26.20743413 -23.05104065 17.16062927 C-21.30736521 10.26702868 -17.70392267 6.19266693 -11.91822815 2.21922302 C-7.92630873 -0.04397815 -4.50610051 0.02387419 0 0 Z M-14.86354065 12.22312927 C-18.53366415 17.15158084 -18.32703011 21.44800093 -18.42604065 27.34812927 C-18.46342346 28.1737738 -18.50080627 28.99941833 -18.5393219 29.8500824 C-18.62922034 36.18792256 -17.05190308 40.24357227 -13.05104065 45.16062927 C-8.15938302 49.70288278 -4.69856303 50.28572534 1.86160278 50.30780029 C2.92278807 50.31331533 2.92278807 50.31331533 4.00541145 50.31894177 C6.38202783 50.32997712 8.75860048 50.33382221 11.13523865 50.33763123 C12.83696634 50.34389604 14.53869266 50.35054285 16.24041748 50.35754395 C21.83466133 50.37858622 27.42890545 50.38894709 33.0231781 50.39891052 C34.94936958 50.40295814 36.87556091 50.40707506 38.80175209 50.4112606 C47.85197044 50.43031334 56.90218062 50.4445437 65.95241517 50.45287257 C76.39654438 50.46264305 86.84046154 50.48895728 97.28451604 50.52937347 C105.35852191 50.55954486 113.43246705 50.57434246 121.5065282 50.57765359 C126.32802251 50.58000309 131.14929031 50.58895041 135.97072411 50.61411476 C140.50896867 50.6374181 145.04683796 50.64161964 149.58512688 50.63135338 C151.2475535 50.63085844 152.90999873 50.63716646 154.57236862 50.65090942 C167.56963521 50.97556599 167.56963521 50.97556599 178.55060863 44.62256336 C182.9839977 39.72565303 182.72948063 34.01217668 182.63645935 27.72312927 C182.67803162 26.22556091 182.67803162 26.22556091 182.72044373 24.69773865 C182.70007644 18.50201018 181.70077719 14.66043898 177.82322693 9.79710388 C173.11213279 5.68371792 168.71987308 4.78455183 162.58616638 4.77294922 C161.86656801 4.76756368 161.14696964 4.76217814 160.40556526 4.75662941 C158.00579108 4.74237624 155.60657056 4.74944673 153.20677185 4.75657654 C151.48164935 4.75087163 149.75653063 4.7439069 148.03141785 4.73577881 C143.353779 4.71784704 138.67632774 4.71901565 133.99866486 4.72472119 C130.0919796 4.72781257 126.18533041 4.72172126 122.27865028 4.71568245 C113.06260297 4.70163919 103.84664836 4.70319727 94.63059998 4.71458435 C85.12495274 4.72606975 75.61958751 4.71198236 66.11397743 4.68518788 C57.94905422 4.66303483 49.78421955 4.65639248 41.61926842 4.66226429 C36.74425375 4.66563549 31.86941992 4.66320777 26.99443054 4.64601326 C22.4109752 4.63055217 17.82793798 4.63449031 13.24449921 4.65331841 C11.56350535 4.65700639 9.88248057 4.65388968 8.2015152 4.64343262 C5.9044455 4.63023488 3.60876261 4.64175763 1.31175232 4.65942383 C0.02719147 4.65963311 -1.25736938 4.6598424 -2.58085632 4.66005802 C-7.80094081 5.41305094 -11.60133015 8.13172815 -14.86354065 12.22312927 Z " fill="#F5BE6F" transform="translate(303.05104064941406,209.83937072753906)"/>
<path d="M0 0 C3.99846482 2.75610622 6.12505754 5.36348584 8.3125 9.6875 C8.82425781 10.66074219 9.33601563 11.63398438 9.86328125 12.63671875 C11 16 11 16 11 25 C-3.19 25 -17.38 25 -32 25 C-29.03660202 34.03649892 -29.03660202 34.03649892 -23 39 C-22.42765625 39.35191406 -21.8553125 39.70382813 -21.265625 40.06640625 C-16.20061072 42.15354144 -10.34782818 41.6147615 -5 41 C-2.49206729 39.92890374 -0.59226827 38.76786213 1.546875 37.09375 C3 36 3 36 5 36 C5.66 37.65 6.32 39.3 7 41 C-0.37556523 47.67313045 -7.33677083 48.64480052 -17.07421875 48.375 C-24.19485756 47.69481958 -28.58762262 44.77259267 -33.375 39.625 C-38.89662697 32.46222279 -39.84077095 25.84537104 -39 17 C-37.49780718 9.36094193 -34.25846864 4.49584832 -28.0625 -0.25 C-18.45549292 -5.73971833 -9.63343201 -5.1676026 0 0 Z " fill="#0F0F0F" transform="translate(139,215)"/>
<path d="M0 0 C1.70220497 1.28765437 3.38072092 2.6094998 5 4 C4.34 5.32 3.68 6.64 3 8 C-1.22769985 8 -1.83665647 7.63505074 -5.1875 5.5 C-13.05933531 1.41830762 -22.62136789 1.50821654 -31.0703125 3.8515625 C-38.24220442 7.07562401 -43.7489868 12.60882203 -46.9375 19.8125 C-49.60293377 28.41229574 -48.33469354 36.19368337 -44.609375 44.26171875 C-40.90345253 50.56718393 -35.59832627 54.61727206 -28.546875 56.5625 C-18.50131785 58.28811718 -12.72885848 56.89154339 -3 53 C-2.67 45.41 -2.34 37.82 -2 30 C0.31 30 2.62 30 5 30 C5.14513802 34.24964127 5.23402037 38.49864635 5.3125 42.75 C5.35439453 43.9565625 5.39628906 45.163125 5.43945312 46.40625 C5.45556641 47.56640625 5.47167969 48.7265625 5.48828125 49.921875 C5.51446533 50.99018555 5.54064941 52.05849609 5.56762695 53.15917969 C5 56 5 56 2.59277344 58.30078125 C-4.80557667 63.14941748 -11.29471036 64.39363586 -20.0625 64.5 C-21.32042358 64.52755371 -21.32042358 64.52755371 -22.60375977 64.55566406 C-32.0360859 64.46332607 -40.1966086 60.47326904 -47 54 C-54.66826811 44.64887667 -57.04210928 36.02767794 -56 24 C-54.38458044 14.42863911 -49.37534454 7.38875321 -41.9296875 1.31640625 C-29.03628146 -7.47929787 -13.60844911 -7.11308206 0 0 Z " fill="#090909" transform="translate(81,199)"/>
<path d="M0 0 C4.21410174 2.99619645 6.56362726 6.64791303 8.203125 11.56640625 C8.28831367 14.37067077 8.3190102 17.14936975 8.30078125 19.953125 C8.2993663 20.77013382 8.29795135 21.58714264 8.29649353 22.4289093 C8.29089794 25.03727893 8.27834629 27.64556259 8.265625 30.25390625 C8.26060943 32.02278522 8.25604662 33.79166553 8.25195312 35.56054688 C8.24092996 39.89586644 8.22366838 44.23112177 8.203125 48.56640625 C5.893125 48.56640625 3.583125 48.56640625 1.203125 48.56640625 C1.18854248 47.57310303 1.17395996 46.5797998 1.15893555 45.55639648 C1.10064338 41.84543164 1.0234147 38.1350541 0.94067383 34.42456055 C0.90756908 32.82342106 0.87949279 31.22216893 0.85668945 29.62084961 C0.82287518 27.30924808 0.77055049 24.99866547 0.71484375 22.6875 C0.70845383 21.9799205 0.7020639 21.272341 0.69548035 20.5433197 C0.54786352 15.47083603 -0.48945317 12.00011885 -2.796875 7.56640625 C-7.3423001 3.95337605 -12.35870141 4.05950279 -17.953125 4.21875 C-23.19863319 4.86002779 -25.71262976 7.21147461 -28.91503906 11.21337891 C-31.10337111 15.11251647 -31.39874234 18.23459964 -31.40625 22.58984375 C-31.42278625 23.33601959 -31.43932251 24.08219543 -31.45635986 24.85098267 C-31.50461791 27.21454275 -31.52615976 29.5774606 -31.546875 31.94140625 C-31.5750535 33.55211526 -31.60498356 35.16279464 -31.63671875 36.7734375 C-31.7103699 40.70437413 -31.76007914 44.6349589 -31.796875 48.56640625 C-34.106875 48.56640625 -36.416875 48.56640625 -38.796875 48.56640625 C-38.796875 31.73640625 -38.796875 14.90640625 -38.796875 -2.43359375 C-36.816875 -2.43359375 -34.836875 -2.43359375 -32.796875 -2.43359375 C-32.466875 0.20640625 -32.136875 2.84640625 -31.796875 5.56640625 C-31.075 4.80328125 -30.353125 4.04015625 -29.609375 3.25390625 C-20.96904815 -5.00240608 -10.36300854 -5.71920754 0 0 Z " fill="#080808" transform="translate(202.796875,214.43359375)"/>
<path d="M0 0 C2.31 0 4.62 0 7 0 C7.39791748 0.88147705 7.79583496 1.7629541 8.20581055 2.67114258 C9.70599379 5.99428625 11.20636453 9.31734524 12.70678711 12.64038086 C13.35169369 14.06874379 13.99655186 15.49712858 14.64135742 16.92553711 C18.41665084 25.28867739 22.19701085 33.64940375 26 42 C26.33492714 41.23285423 26.33492714 41.23285423 26.67662048 40.45021057 C28.99342662 35.14485159 31.31349628 29.8409288 33.63549805 24.5378418 C34.50255414 22.55644059 35.36876708 20.5746702 36.23413086 18.5925293 C37.47550436 15.74952107 38.7198679 12.90783848 39.96484375 10.06640625 C40.35341049 9.17474258 40.74197723 8.28307892 41.14231873 7.36439514 C41.50261673 6.54361984 41.86291473 5.72284454 42.23413086 4.87719727 C42.71045204 3.78798729 42.71045204 3.78798729 43.19639587 2.67677307 C44 1 44 1 45 0 C47.33297433 -0.04092937 49.66705225 -0.04241723 52 0 C46.53187125 12.64825888 41.01704243 25.27551666 35.4375 37.875 C34.91317383 39.06327393 34.38884766 40.25154785 33.84863281 41.47583008 C33.36104492 42.57435303 32.87345703 43.67287598 32.37109375 44.8046875 C31.93724365 45.78421387 31.50339355 46.76374023 31.05639648 47.77294922 C30 50 30 50 29 51 C26.66702567 51.04092937 24.33294775 51.04241723 22 51 C17.22423575 40.87396448 12.58467498 30.69403706 8.06323242 20.4519043 C7.04268805 18.14267056 6.01648549 15.8359992 4.99023438 13.52929688 C4.33819816 12.05483936 3.68649223 10.58023573 3.03515625 9.10546875 C2.72900894 8.41913864 2.42286163 7.73280853 2.10743713 7.02568054 C0 2.22874202 0 2.22874202 0 0 Z " fill="#080808" transform="translate(221,212)"/>
<path d="M0 0 C4.02741622 2.35805969 7.31458713 4.99085012 9.7265625 9.04296875 C10.2215625 12.50796875 10.2215625 12.50796875 10.7265625 16.04296875 C-1.1534375 16.04296875 -13.0334375 16.04296875 -25.2734375 16.04296875 C-24.11487694 9.09160541 -22.35943753 5.26373645 -16.6484375 1.16796875 C-11.28279633 -1.90381096 -5.74737069 -2.4194258 0 0 Z " fill="#F9F9F9" transform="translate(132.2734375,217.95703125)"/>
<path d="M0 0 C3.63467079 1.62400184 4.77408696 2.66113044 7 6 C7.46090454 11.62303544 7.13378514 15.12522312 4 20 C-0.22994616 22.8199641 -4.03220448 22.79231188 -9 22 C-12.34625024 19.47323961 -13.67977847 17.96066458 -15 14 C-15.37066773 8.99598565 -15.09881835 6.01698676 -12 2 C-7.95979629 -0.69346914 -4.74289561 -0.55014255 0 0 Z " fill="#F7F7F7" transform="translate(297,299)"/>
<path d="M0 0 C2.93038162 1.2469709 4.41759241 2.22345655 6.3125 4.75 C7.69370182 9.27029686 7.40806597 12.91862518 5.75 17.3125 C3.87699596 20.18889906 3.093211 20.77386231 0 22 C-3.07319883 22.52227887 -5.92898721 22.55289179 -9 22 C-12.21840301 19.45209761 -14.73534937 17.20831431 -15.23828125 13.01171875 C-15.3713075 8.84589668 -15.38831668 6.62130669 -13.125 3 C-9.13279051 -0.75737364 -5.2660136 -0.51020201 0 0 Z " fill="#F8F8F8" transform="translate(230,299)"/>
<path d="M0 0 C1.32 0 2.64 0 4 0 C5.37207031 1.46875 5.37207031 1.46875 6.578125 3.5 C7.01640625 4.221875 7.4546875 4.94375 7.90625 5.6875 C8.57140625 6.8321875 8.57140625 6.8321875 9.25 8 C9.70890625 8.763125 10.1678125 9.52625 10.640625 10.3125 C11.77346444 12.20056573 12.88844495 14.09932571 14 16 C14.33 10.72 14.66 5.44 15 0 C15.99 0 16.98 0 18 0 C18 7.26 18 14.52 18 22 C13 21 13 21 11.60620117 19.60131836 C11.25533447 19.02003174 10.90446777 18.43874512 10.54296875 17.83984375 C10.15302734 17.21142578 9.76308594 16.58300781 9.36132812 15.93554688 C8.7802832 14.94651367 8.7802832 14.94651367 8.1875 13.9375 C7.78080078 13.27427734 7.37410156 12.61105469 6.95507812 11.92773438 C5.95587422 10.2937421 4.97601184 8.64795027 4 7 C3.67 11.95 3.34 16.9 3 22 C2.01 22 1.02 22 0 22 C0 14.74 0 7.48 0 0 Z " fill="#7E7E7E" transform="translate(181,299)"/>
<path d="M0 0 C5.28 0 10.56 0 16 0 C16 0.99 16 1.98 16 3 C11.71 3 7.42 3 3 3 C3 4.98 3 6.96 3 9 C6.96 9 10.92 9 15 9 C15 9.99 15 10.98 15 12 C11.04 12 7.08 12 3 12 C3 14.31 3 16.62 3 19 C7.62 19 12.24 19 17 19 C17 19.99 17 20.98 17 22 C11.39 22 5.78 22 0 22 C0 14.74 0 7.48 0 0 Z " fill="#838383" transform="translate(77,299)"/>
<path d="M0 0 C2.93038162 1.2469709 4.41759241 2.22345655 6.3125 4.75 C7.69370182 9.27029686 7.40806597 12.91862518 5.75 17.3125 C3.87699596 20.18889906 3.093211 20.77386231 0 22 C-3.07319883 22.52227887 -5.92898721 22.55289179 -9 22 C-12.21840301 19.45209761 -14.73534937 17.20831431 -15.23828125 13.01171875 C-15.3713075 8.84589668 -15.38831668 6.62130669 -13.125 3 C-9.13279051 -0.75737364 -5.2660136 -0.51020201 0 0 Z M-9.875 4.0625 C-12.5386368 7.74458617 -12.63697621 9.54116653 -12 14 C-10.25271222 17.72803465 -10.25271222 17.72803465 -7 20 C-4.0842309 20.41702122 -4.0842309 20.41702122 -1 20 C1.30275556 18.1329009 2.67823871 16.64352259 4 14 C4.41314256 9.3521462 3.78987316 6.75559848 1 3 C-3.17845339 0.91077331 -6.14122077 1.38391925 -9.875 4.0625 Z " fill="#787878" transform="translate(230,299)"/>
<path d="M0 0 C3.63467079 1.62400184 4.77408696 2.66113044 7 6 C7.46090454 11.62303544 7.13378514 15.12522312 4 20 C-0.22994616 22.8199641 -4.03220448 22.79231188 -9 22 C-12.34625024 19.47323961 -13.67977847 17.96066458 -15 14 C-15.37066773 8.99598565 -15.09881835 6.01698676 -12 2 C-7.95979629 -0.69346914 -4.74289561 -0.55014255 0 0 Z M-12 7 C-12.51521375 11.19531196 -12.47609387 14.48134029 -10 18 C-6.48175489 20.34549674 -5.14224306 20.57991403 -1 20 C1.85801731 18.01181405 3.61901083 16.52395669 4.484375 13.0625 C4.75726358 9.06013415 4.24266331 7.3425835 1.875 4 C-0.84782938 1.82738629 -0.84782938 1.82738629 -4 1.375 C-8.10703441 2.23063217 -9.55401113 3.61878009 -12 7 Z " fill="#757575" transform="translate(297,299)"/>
<path d="M0 0 C0.99 0 1.98 0 3 0 C3 2.97 3 5.94 3 9 C6.63 9 10.26 9 14 9 C14 6.03 14 3.06 14 0 C14.99 0 15.98 0 17 0 C17 7.26 17 14.52 17 22 C16.01 22 15.02 22 14 22 C14 18.7 14 15.4 14 12 C10.37 12 6.74 12 3 12 C3 15.3 3 18.6 3 22 C2.01 22 1.02 22 0 22 C0 14.74 0 7.48 0 0 Z " fill="#848484" transform="translate(146,299)"/>
<path d="M0 0 C5.61 0 11.22 0 17 0 C17 0.99 17 1.98 17 3 C12.38 3 7.76 3 3 3 C3 5.31 3 7.62 3 10 C6.96 10 10.92 10 15 10 C15 10.66 15 11.32 15 12 C11.04 12 7.08 12 3 12 C3 14.64 3 17.28 3 20 C7.62 20 12.24 20 17 20 C17 20.66 17 21.32 17 22 C11.39 22 5.78 22 0 22 C0 14.74 0 7.48 0 0 Z " fill="#787878" transform="translate(379,299)"/>
<path d="M0 0 C3.0625 2.5 3.0625 2.5 5 5 C0.25 4.125 0.25 4.125 -2 3 C-6.09642892 2.55382944 -6.09642892 2.55382944 -9.66796875 4.23828125 C-12.10248228 7.45812173 -11.48631871 11.15113478 -11 15 C-10.22303517 17.67734485 -10.22303517 17.67734485 -8 19 C-4.06400869 19.55759877 -0.76512137 19.25504046 3 18 C3 16.35 3 14.7 3 13 C0.69 13 -1.62 13 -4 13 C-4 12.34 -4 11.68 -4 11 C-1.03 11 1.94 11 5 11 C5.2339498 13.85418754 5.41921004 16.20342775 5 19 C2.18341508 21.90744249 -0.60461411 22.2228961 -4.5 22.4375 C-8.79156546 22.30160043 -11.00202711 21.18534619 -14 18 C-15.84862688 14.30274625 -15.47587094 10.03538558 -15 6 C-11.2360524 -0.14778107 -6.89489871 -1.1174491 0 0 Z " fill="#757575" transform="translate(335,299)"/>
<path d="M0 0 C2.5625 1.375 2.5625 1.375 4 3 C4 3.66 4 4.32 4 5 C0.125 4.125 0.125 4.125 -1 3 C-3.33297433 2.95907063 -5.66705225 2.95758277 -8 3 C-8.33 4.32 -8.66 5.64 -9 7 C-8.39671875 7.18175781 -7.7934375 7.36351562 -7.171875 7.55078125 C1.74785802 10.35618115 1.74785802 10.35618115 4 13 C4.5 16 4.5 16 4 19 C1.08417604 21.82947838 -1.05034092 22.41130913 -5.0625 22.375 C-5.91972656 22.38273437 -6.77695312 22.39046875 -7.66015625 22.3984375 C-10.44716875 21.9238544 -11.36632733 21.28178544 -13 19 C-13 18.01 -13 17.02 -13 16 C-12.01 16.33 -11.02 16.66 -10 17 C-10 17.66 -10 18.32 -10 19 C-6.37 19 -2.74 19 1 19 C0.67 17.35 0.34 15.7 0 14 C-0.68707031 13.81824219 -1.37414062 13.63648438 -2.08203125 13.44921875 C-2.98308594 13.19785156 -3.88414062 12.94648438 -4.8125 12.6875 C-5.70582031 12.44386719 -6.59914063 12.20023437 -7.51953125 11.94921875 C-10.08800375 10.96632298 -11.32699088 10.15644357 -13 8 C-13.4375 5.5 -13.4375 5.5 -13 3 C-9.76560237 -1.07815353 -4.7656366 -0.66456584 0 0 Z " fill="#747474" transform="translate(425,299)"/>
<path d="M0 0 C3.0625 2.5 3.0625 2.5 5 5 C3.68 5 2.36 5 1 5 C0.34 4.34 -0.32 3.68 -1 3 C-4.55600891 2.53617275 -6.34990088 2.57230321 -9.375 4.5625 C-11.59464544 7.89196816 -11.42107788 10.06993977 -11 14 C-9.98263229 16.76142665 -9.63829259 17.68085371 -7 19 C-4.04195427 19.33340471 -4.04195427 19.33340471 -1 19 C0.68798827 17.56249809 0.68798827 17.56249809 2 16 C2.99 16 3.98 16 5 16 C3.63016497 19.16115776 3.0109362 19.9927092 0 22 C-3.06578057 22.5454104 -5.9329232 22.53808365 -9 22 C-12.28175318 19.47031526 -13.69243777 17.92268669 -15 14 C-15.53756448 8.30181648 -14.60129241 5.44865533 -11 1 C-7.5321507 -0.73392465 -3.78231256 -0.61299548 0 0 Z " fill="#787878" transform="translate(124,299)"/>
<path d="M0 0 C5.94 0 11.88 0 18 0 C18 0.66 18 1.32 18 2 C15.36 2 12.72 2 10 2 C10 8.6 10 15.2 10 22 C9.01 22 8.02 22 7 22 C7 15.73 7 9.46 7 3 C4.69 3 2.38 3 0 3 C0 2.01 0 1.02 0 0 Z " fill="#818181" transform="translate(43,299)"/>
<path d="M0 0 C0.99 0 1.98 0 3 0 C3 6.6 3 13.2 3 20 C6.63 20 10.26 20 14 20 C14 20.66 14 21.32 14 22 C9.38 22 4.76 22 0 22 C0 14.74 0 7.48 0 0 Z " fill="#7A7A7A" transform="translate(253,299)"/>
<path d="M0 0 C0.99 0 1.98 0 3 0 C3 3.3 3 6.6 3 10 C6.63 10 10.26 10 14 10 C14 10.33 14 10.66 14 11 C10.37 11 6.74 11 3 11 C3 14.63 3 18.26 3 22 C2.01 22 1.02 22 0 22 C0 14.74 0 7.48 0 0 Z " fill="#7C7C7C" transform="translate(146,299)"/>
<path d="M0 0 C0.66 0.33 1.32 0.66 2 1 C1.01 2.2684375 1.01 2.2684375 0 3.5625 C-2.64642681 8.11104609 -2.35619773 11.29289728 -1.6875 16.375 C-1.460625 16.91125 -1.23375 17.4475 -1 18 C-0.01 18.33 0.98 18.66 2 19 C2 19.99 2 20.98 2 22 C-1.47129192 21.061813 -2.77084235 20.33978548 -4.8125 17.3125 C-6.53668999 12.5029174 -6.87578286 8.87667757 -4.6875 4.1875 C-3 2 -3 2 0 0 Z " fill="#7E7E7E" transform="translate(288,299)"/>
<path d="M0 0 C0.99 0 1.98 0 3 0 C3 7.26 3 14.52 3 22 C2.01 22 1.02 22 0 22 C0 14.74 0 7.48 0 0 Z " fill="#707070" transform="translate(358,299)"/>
<path d="M0 0 C0.99 0.33 1.98 0.66 3 1 C2.401875 1.4125 1.80375 1.825 1.1875 2.25 C-0.98841237 3.9907299 -2.42548842 5.71695821 -4 8 C-4.25 5.6875 -4.25 5.6875 -4 3 C-2.1875 1.125 -2.1875 1.125 0 0 Z " fill="#868686" transform="translate(416,299)"/>
<path d="M0 0 C0.99 0.33 1.98 0.66 3 1 C3 1.66 3 2.32 3 3 C3.66 3 4.32 3 5 3 C5 3.99 5 4.98 5 6 C3.0625 5.25 3.0625 5.25 1 4 C0.25 1.875 0.25 1.875 0 0 Z " fill="#7D7D7D" transform="translate(412,315)"/>
</svg>
